<svg width="42" height="52" viewBox="0 0 42 52" fill="none" xmlns="http://www.w3.org/2000/svg">
<path d="M26.25 0L42 15.6V46.8C42 48.1791 41.4469 49.5018 40.4623 50.477C39.4777 51.4521 38.1424 52 36.75 52H5.25C3.85761 52 2.52225 51.4521 1.53769 50.477C0.553123 49.5018 0 48.1791 0 46.8V5.2C0 3.82087 0.553123 2.49823 1.53769 1.52304C2.52225 0.547855 3.85761 0 5.25 0H26.25ZM36.75 46.8V18.2H23.625V5.2H5.25V46.8H36.75ZM18.165 26.806C17.535 24.804 16.1437 18.408 19.8187 18.304C23.4937 18.2 21.0787 26.416 21.0787 26.416C22.1025 30.29 26.3812 33.072 26.3812 33.072C27.6937 32.682 35.175 31.824 34.125 35.672C32.9963 39.52 24.9375 35.906 24.9375 35.906C19.8187 36.27 15.9862 37.622 15.9862 37.622C13.02 43.108 9.555 45.5 8.1375 43.186C6.37875 40.3 13.7287 36.582 13.7287 36.582C17.535 30.472 18.1125 26.91 18.165 26.806ZM19.8712 28.99C18.8212 32.37 16.7212 35.984 16.7212 35.984C18.9525 35.1 23.835 34.086 23.835 34.086C20.8425 31.486 19.9237 29.016 19.8712 28.99ZM28.1137 34.632C28.1137 34.632 32.7075 36.322 32.8125 35.646C32.9963 34.944 29.3212 34.32 28.1137 34.632ZM13.2562 38.506C11.235 39.286 9.2925 42.614 9.765 42.614C10.2375 42.64 12.1537 41.054 13.2562 38.506ZM19.8712 24.076C19.8712 23.946 21 19.708 19.8712 19.578C19.0837 19.5 19.845 23.972 19.8712 24.076Z" fill="#FF0000"/>
</svg>
