<svg width="102" height="78" viewBox="0 0 102 78" fill="none" xmlns="http://www.w3.org/2000/svg">
<path d="M10.0001 77.8798H91.6765C97.1994 77.8798 101.677 73.4027 101.677 67.8798V15.5946C101.677 10.0717 97.1994 5.59455 91.6765 5.59455H51.5194C49.5404 5.59455 47.7161 4.52454 46.7502 2.79728C45.7843 1.07002 43.9599 0 41.981 0H10.0001C4.47723 0 8.39233e-05 4.47715 8.39233e-05 9.99999V67.8798C8.39233e-05 73.4027 4.47723 77.8798 10.0001 77.8798Z" fill="#7873D6"/>
<rect x="4.32666" y="8.41284" width="90.8598" height="65.621" rx="10" fill="black" fill-opacity="0.05"/>
<rect x="5.28809" y="9.61475" width="90.8598" height="65.621" rx="10" fill="white"/>
<path d="M91.6764 77.1587H10C4.47715 77.1587 0 72.6816 0 67.1587V30.0576C0 24.5348 4.47716 20.0576 10 20.0576H49.6764C52.0284 20.0576 54.1589 18.67 55.1098 16.5188C56.0607 14.3676 58.1912 12.98 60.5432 12.98H91.6764C97.1993 12.98 101.676 17.4571 101.676 22.98V67.1587C101.676 72.6816 97.1993 77.1587 91.6764 77.1587Z" fill="black" fill-opacity="0.06"/>
<path d="M91.6764 77.8797H10C4.47715 77.8797 0 73.4025 0 67.8797V30.7786C0 25.2557 4.47716 20.7786 10 20.7786H49.6764C52.0284 20.7786 54.1589 19.391 55.1098 17.2398C56.0607 15.0886 58.1912 13.7009 60.5432 13.7009H91.6764C97.1993 13.7009 101.676 18.1781 101.676 23.7009V67.8797C101.676 73.4025 97.1993 77.8797 91.6764 77.8797Z" fill="#534CC7"/>
<path fill-rule="evenodd" clip-rule="evenodd" d="M40.9443 77.9999H91.5565C97.0793 77.9999 101.556 73.5228 101.556 67.9999V43.8408C84.45 61.9408 61.0196 72.4462 40.9443 77.9999Z" fill="#5651A7" fill-opacity="0.7"/>
</svg>
